# xmcd
#
# Track frame offsets:
# 150
# 21558
# 37778
# 54957
# 73313
# 89191
# 106343
# 122347
# 140412
# 158101
# 173295
# 188949
# 205860
# 221364
# 236017
# 254501
# 272950
#
# Disc length: 3915 seconds
#
#
# Revision: 2
# Processed by: cddbd v1.5.1PL2 Copyright (c) Steve Scherf et al.
# Submitted via: FreeRIP 2.944 
#
DISCID=f40f4911
DTITLE=Destiny's Child - ¶Â¤H²Õ3¤H
DYEAR=2005
DGENRE=R&B
TTITLE0=Stand Up For Love
TTITLE1=Independent Women Part 1
TTITLE2=Survivor
TTITLE3=Soldier
TTITLE4=Check On It
TTITLE5=Jumpin', Jumpin'
TTITLE6=Lose My Breath
TTITLE7=Say My Name
TTITLE8=Emotion
TTITLE9=Bug A Boo
TTITLE10=Bootylicious
TTITLE11=Bills, Bills, Bills
TTITLE12=Girl
TTITLE13=No, No, No Part 2
TTITLE14=Cater 2 U
TTITLE15=Feel The Same Way I Do
TTITLE16=Brown Eyes
EXTD=
EXTT0=
EXTT1=
EXTT2=
EXTT3=
EXTT4=
EXTT5=
EXTT6=
EXTT7=
EXTT8=
EXTT9=
EXTT10=
EXTT11=
EXTT12=
EXTT13=
EXTT14=
EXTT15=
EXTT16=
PLAYORDER=
